<?xml version="1.0" encoding="UTF-8"?>
<svg width="2229.2" height="2778.4" version="1.1" xmlns="http://www.w3.org/2000/svg" xmlns:cc="http://creativecommons.org/ns#" xmlns:dc="http://purl.org/dc/elements/1.1/" xmlns:rdf="http://www.w3.org/1999/02/22-rdf-syntax-ns#">
 <metadata>
  <rdf:RDF>
   <cc:Work rdf:about="">
    <dc:format>image/svg+xml</dc:format>
    <dc:type rdf:resource="http://purl.org/dc/dcmitype/StillImage"/>
    <dc:title/>
   </cc:Work>
  </rdf:RDF>
 </metadata>
 <g transform="translate(4003.2 -1988.4)" fill="#fff">
  <path d="m-2888.6 2302.4c-28.454 0-56.907 0.4118-70 1.2363-125.32 7.889-228.45 26.626-344.91 62.67-128.27 39.697-262.8 102.62-377.09 176.37l-17 10.971-0.2988 240.84c-0.346 278.69 0.2901 326.71 5.3281 402.34 21.195 318.17 112.3 596.28 267.81 817.5 112.37 159.84 257.66 291.06 425.66 384.42 22.403 12.449 69.444 35.911 92 45.883 10.175 4.498 18.572 8.1794 18.662 8.1894 0.088 0.01 9.1469-4.0089 20.129-8.9199 104.47-46.727 206.81-111.68 296.21-187.99 111.12-94.85 204.81-207.19 279.42-335.01 119.67-205.02 189.63-448.72 208.02-724.57 5.034-75.534 5.7034-126.21 5.3574-404.84l-0.2949-237.84-17-10.959c-146.56-94.47-316.61-166.81-481.6-204.87-80.175-18.495-150.89-28.55-240.4-34.184-13.093-0.8245-41.546-1.2363-70-1.2363zm410.01 735.23c13.231 0.019 16.318 0.3906 18.785 1.4863 3.249 1.4431 3.7465 2.1068 3.7285 4.9668-0.033 5.202-4.3299 18.54-9.7969 30.412-10.139 22.014-16.14 37.674-33.684 87.889-4.0354 11.55-10.346 27.75-14.025 36-8.017 17.979-13.105 31.424-23.461 62-4.286 12.65-10.594 30.2-14.02 39-3.425 8.8-7.9678 21.034-10.092 27.186-4.901 14.186-20.694 53.259-29.43 72.814-3.686 8.25-8.4214 19.977-10.523 26.057s-5.3783 14.47-7.2813 18.646c-2.901 6.364-3.9205 7.6911-6.3125 8.2031-1.57 0.336-11.628 1.1173-22.354 1.7363-35.812 2.066-39.181 2.0742-42.291 0.1152-3.892-2.452-4.2984-5.2893-2.3594-16.529 1.919-11.125 6.1082-22.207 16.99-44.961 4.472-9.351 9.5675-22.154 12.562-31.562 2.772-8.705 8.3733-23 12.449-31.766 8.534-18.36 16.198-39.2 25.26-68.688 4.452-14.488 8.6632-25.654 13.949-37 4.1652-8.939 10.044-22.974 13.064-31.19s8.6649-22.616 12.545-32 8.5908-22.462 10.469-29.062c5.544-19.486 7.3079-24.206 15.127-40.5 4.091-8.525 8.5369-19.453 9.8809-24.283 3.28-11.787 8.2355-24.828 10.23-26.918 1.451-1.522 5.009-1.7308 33.623-1.9668 7.0175-0.058 12.554-0.092 16.965-0.086zm-393.41 27.076c6.4982-0.059 12.64 0.2507 17.826 0.9727 3.85 0.536 12.4 1.6685 19 2.5175 24.103 3.101 52.902 10.598 65.949 17.168 10.85 5.464 30.836 19.387 32.85 22.885 0.439 0.763 1.3153 10.646 1.9453 21.963 1.167 20.945 0.2774 41.241-2.3066 52.586l-1.0606 4.6582-5.6894 0.5762c-3.128 0.315-20.088 0.6928-37.688 0.8398-36.751 0.307-37.417 0.1961-39.539-6.5469-0.725-2.303-1.5756-9.54-1.8906-16.084-0.538-11.22-0.7123-11.999-3.0703-13.723-4.246-3.104-15.934-4.3492-41-4.3652l-23.5-0.014-8.5 4.0898c-14.958 7.196-19.908 14.297-18.621 26.715 1.022 9.85 7.4172 16.95 19.531 21.68 3.9 1.522 9.348 2.3822 19.5 3.0742 25.741 1.756 37.981 3.0057 49.09 5.0137 52.416 9.472 79.017 23.337 98.305 51.24 10.581 15.305 18.064 38.272 18.164 55.744 0.076 13.576-7.4376 39.261-16.932 57.871-3.237 6.344-15.467 18.572-24.467 24.465-22.911 15.002-44.658 23.755-71.09 28.611-9.72 1.786-14.776 1.9797-47.924 1.8457-20.381-0.083-38.407-0.3279-40.057-0.5469-7.261-0.963-51.818-14.415-62.746-18.943-5.646-2.34-29.666-18.676-35.566-24.186-3.802-3.551-3.7988-3.5183-5.1758-44.529-1.214-36.148-1.4528-34.136 4.8672-40.984 5.315-5.759 6.8319-6.0531 23.754-4.6171 12.545 1.064 17.804 1.0596 29.668-0.025 15.145-1.386 22.095-1.0557 24.297 1.1543 2.948 2.96 4.6887 13.834 4.0137 25.06-0.875 14.542-1.4496 14.014 20.525 18.84 11.767 2.584 58.171 3.9491 69.162 2.0351 13.668-2.381 22.596-10.783 25.584-24.082 1.67-7.436-1.7778-15.042-8.8438-19.502-5.107-3.223-19.098-8.0618-33.514-11.592-10.096-2.472-13.999-2.9316-24.873-2.9316-24.38 0-52.82-5.8116-75.734-15.475-11.666-4.92-24.994-13.764-33.369-22.139-6.051-6.052-8.3339-9.2972-12.498-17.781-11.776-23.993-16.341-46.843-12.988-64.984 1.997-10.804 14.806-41.242 20.728-49.258 5.95-8.053 28.444-23.885 43.02-30.281 8.725-3.829 27.396-10.37 39.19-13.732 11.358-3.2374 27.378-5.1532 41.674-5.2832zm-476.19 5.0723c4.6041-0.036 9.8324 0.4586 15.186 1.4648 11.173 2.101 49.886 2.4313 81.406 0.6953 18.171-1.001 32.553-1.0233 68.5-0.1113 60.716 1.542 79.369 1.4468 96.531-0.4902 15.772-1.78 24.315-1.3104 26.836 1.4746 2.874 3.176 4.4341 20.125 5.1211 55.646 0.547 28.297 0.3957 35.677-0.9063 44-3.113 19.908-1.869 19.092-28.582 18.75-20.422-0.262-40.29-1.8139-43.227-3.3769-3.618-1.925-4.2734-4.9668-4.2734-19.844v-14.473l-5-0.8848c-3.282-0.581-9.295-0.4295-17.5 0.4375-7.099 0.75-24.526 1.3355-40.334 1.3555l-27.834 0.035-2 2.4649c-1.882 2.32-1.981 3.678-1.664 23 0.414 25.256 0.6488 25.955 9.3418 27.822 4.453 0.956 12.302 1.1288 30.58 0.6718 26.235-0.656 39.277 0.3791 42.971 3.4121 2.773 2.276 4.0153 11.032 2.8653 20.191-0.507 4.04-0.8298 15.917-0.7168 26.393 0.22 20.661-0.2532 23.219-4.8692 26.244-3.144 2.06-15.238 2.3534-28.34 0.6894-5.428-0.69-12.702-0.5299-26.332 0.5801-18.68 1.519-18.863 1.5575-22.5 4.6445-3.613 3.067-3.6663 3.22-3.6563 10.5 0.02 13.591 1.7593 34.875 2.9883 36.555 1.11 1.518 3.1635 1.5447 25.604 0.3477 18.397-0.981 30.054-1.0484 47.396-0.2774 14.19 0.631 23.383 0.6668 24 0.092 0.557-0.518 1.0342-6.5548 1.0762-13.631 0.085-14.29 0.75-17.768 3.707-19.35 1.129-0.604 11.09-1.4803 22.135-1.9473 11.045-0.468 23.735-1.1478 28.199-1.5098 10.218-0.83 16.713 0.1229 19.939 2.9239 3.879 3.365 5.0925 13.154 2.9395 23.709-2.171 10.648-2.2631 18.627-0.6211 54.475 1.615 35.261 1.371 37.048-5.377 39.369-5.45 1.875-19.693 2.0293-87.498 0.9453-31.625-0.505-60.65-0.8905-64.5-0.8555-107.84 0.979-148.22 0.1767-154.62-3.0703-3.172-1.608-3.9739-9.0297-3.3769-31.221 0.313-11.642 1.0763-25.436 1.6953-30.654 0.976-8.232 1.4917-9.853 3.8887-12.25 3.283-3.283 7.7127-3.608 15.93-1.1679 5.381 1.5978 11.336 1.3585 15.006-0.6055 3.673-1.966 4.5031-9.8113 4.1211-38.99-0.609-46.394-0.6656-95.247-0.1406-122 0.275-14.024 0.1297-26.517-0.3203-27.76-1.527-4.204-6.0857-5.5611-19.18-5.7051-12.83-0.142-16.116-1.0724-17.002-4.8144-3.389-14.309-4.3733-39.32-2.1933-55.74 1.867-14.064 2.9556-16.754 7.0976-17.52 2.2054-0.4076 4.7434-0.619 7.5059-0.6406zm-94.844 55.547c0.4786-0.025 0.9072 0.062 1.2676 0.2637 0.832 0.466 6.3678 6.2647 12.303 12.887s15.869 16.684 22.074 22.361c12.619 11.541 13.622 12.87 12.31 16.32-0.825 2.17-38.211 38.111-41.639 40.029-2.131 1.193-27.455 29.737-27.455 30.947 0 1.614 16.317 17.955 29.5 29.543 18.186 15.986 39.5 37.39 39.5 39.666 0 1.233-9.0407 11.034-24.223 26.262-13.323 13.363-24.967 24.297-25.879 24.297-0.911 0-7.4266-6.637-14.477-14.75-7.051-8.112-30.171-32.075-51.379-53.25-38.319-38.26-48.297-49.182-49.574-54.27-0.565-2.25 0.2935-3.8163 5.6055-10.238 3.449-4.17 10.647-11.393 15.996-16.051s11.402-10.375 13.453-12.705c6.728-7.642 77.379-78.627 79.904-80.281 0.9781-0.6406 1.9134-0.9903 2.7109-1.0313zm1065.6 0.6055c1.949 0 5.125 2.46 12.584 9.75 13.456 13.153 101.77 103.82 104.1 106.87 1.204 1.5769 1.6391 3.2728 1.246 4.8398-0.9299 3.703-22.602 26.894-56.574 60.537-16.939 16.775-36.81 36.866-44.16 44.646s-14.263 14.386-15.363 14.68c-1.523 0.406-5.695-2.7584-17.5-13.275-18.402-16.393-32-30.176-32-32.436 0-3.321 37.861-43.785 59.154-63.219 4.76-4.344 8.9685-8.9636 9.3535-10.264 0.612-2.073-1.2033-4.2434-14.654-17.525-8.444-8.338-24.269-24.492-35.164-35.896l-19.81-20.734 2.0859-2.9297c1.147-1.611 11.539-12.406 23.092-23.988 16.616-16.658 21.552-21.06 23.615-21.06zm-737.72 882.02c2.7226 0 5.5347 0.545 8.166 1.709 6.144 2.718 8.2876 7.2119 8.3086 17.422 0.018 8.26-1.2167 11.042-6.7207 15.152-3.018 2.253-10.734 3.0631-15.447 1.6211-5.043-1.542-9.0928-6.2784-9.8848-11.564-0.826-5.509 4e-4 -13.446 1.7754-17.066 2.2564-4.5994 7.813-7.2664 13.803-7.2735zm110 0c2.7226 0 5.5347 0.545 8.166 1.709 6.144 2.718 8.2876 7.2119 8.3086 17.422 0.018 8.26-1.2167 11.042-6.7207 15.152-3.018 2.253-10.734 3.0631-15.447 1.6211-5.043-1.542-9.0928-6.2784-9.8848-11.564-0.826-5.509 4e-4 -13.446 1.7754-17.066 2.2564-4.5994 7.813-7.2664 13.803-7.2735zm219.78 0.049c2.9518-0.07 5.989 0.5277 8.791 1.8008 5.717 2.5969 7.8863 7.3382 7.9063 17.281 0.018 8.26-1.2167 11.042-6.7207 15.152-1.511 1.127-4.6495 2.0865-7.4375 2.2735-13.222 0.884-19.743-6.9828-17.998-21.719 0.82-6.92 2.5618-9.9749 7.1738-12.586 2.467-1.3965 5.3335-2.1335 8.2852-2.2031zm-159.19 0.068c3.6829-0.1426 7.3576 0.5793 10.062 2.3516 3.82 2.504 6.2914 8.9589 6.3164 16.502 0.029 8.447-2.1527 12.728-8.0137 15.734-6.884 3.53-14.899 2.6008-20.037-2.3222-5.052-4.84-6.1182-16.211-2.3652-25.221 1.7375-4.1706 7.8989-6.8071 14.037-7.0449zm74.324 0c3.794 0.022 7.6739 0.8903 9.8418 2.5058 4.876 3.635 6.4964 7.6484 6.4004 15.861-0.12 10.363-2.7374 14.866-10.064 17.326-4.37 1.468-7.6691 1.3864-12.416-0.3066-7.877-2.809-10.203-7.5499-9.4531-19.254 0.54-8.402 2.3029-11.688 7.8399-14.602 2.0015-1.0535 4.9006-1.5482 7.8515-1.5312zm121.74 0.037c0.8428-0.021 1.7025 0.01 2.5703 0.086 10.024 0.909 13.709 5.1841 14.545 16.873 0.646 9.02-2.1719 15.208-8.1719 17.932-10.816 4.911-22.522-0.6878-24.152-11.551-0.805-5.367 0.17-12.91 2.164-16.768 2.0248-3.9148 7.1454-6.4275 13.045-6.5723zm-61.873 0.1328c1.1092-0.04 1.2109 2.24 1.2109 14.059v14.607h2.5586c2.342 0 2.534 0.3151 2.25 3.7051l-0.3086 3.7051-9.2363 0.051c-5.08 0.027-9.692-0.1021-10.25-0.2891-0.558-0.185-1.0137-1.8759-1.0137-3.7559 0-3.129 0.252-3.416 3-3.416h3v-8.5195c0-8.474-0.012-8.5149-2.3808-7.9199-2.135 0.535-2.4266 0.2192-2.8086-3.0508-0.471-4.033-0.1806-4.3084 7.1894-6.8164 2.475-0.842 5.287-1.8417 6.25-2.2207 0.2023-0.079 0.3807-0.133 0.5391-0.1387zm-245 0.02c1.1102-0.06 1.2109 2.2117 1.2109 14.039v14.607h2.5586c2.342 0 2.534 0.3151 2.25 3.7051l-0.3086 3.7051-9.3418 0.051c-5.1379 0.028-9.5991-0.3632-9.9121-0.8692-0.312-0.506-0.669-2.1958-0.791-3.7558-0.198-2.51 0.1072-2.836 2.6602-2.836h2.8847v-16.723l-2.5 0.4785c-2.332 0.446-2.5 0.2061-2.5-3.5469 0-4.004 0.031-4.0358 5.75-6.0098 3.162-1.091 6.537-2.3042 7.5-2.6972 0.2025-0.083 0.3805-0.1399 0.5391-0.1485zm220 0c1.1102-0.06 1.2109 2.2117 1.2109 14.039v14.607h2.5586c2.342 0 2.534 0.3151 2.25 3.7051l-0.3086 3.7051-9.375 0.051c-5.471 0.03-9.4979-0.3681-9.6679-0.9551-1.714-5.919-1.5775-6.5059 1.5215-6.5059h3.0214v-16.723l-2.5 0.4785c-2.332 0.446-2.5 0.2061-2.5-3.5469 0-4.004 0.031-4.0358 5.75-6.0098 3.162-1.091 6.537-2.3042 7.5-2.6972 0.2025-0.083 0.3805-0.1399 0.5391-0.1485zm183 0c1.1102-0.06 1.2109 2.2117 1.2109 14.039v14.607h2.5586c2.342 0 2.534 0.3151 2.25 3.7051l-0.3086 3.7051-9.3359 0.051c-5.135 0.028-9.6825-0.1771-10.106-0.4551-0.422-0.278-0.8046-1.9679-0.8476-3.7559-0.071-2.946 0.1965-3.25 2.8555-3.25h2.9335v-17.037l-2.5 0.627c-2.356 0.59-2.5 0.3943-2.5-3.3907 0-3.993 0.034-4.028 5.75-6 3.162-1.091 6.537-2.3042 7.5-2.6972 0.2025-0.083 0.3805-0.1399 0.5391-0.1485zm-427.21 0.096c0.1195-0.012 0.1946-0.01 0.2187 0.018 0.193 0.193 0.4294 6.5595 0.5254 14.146 0.172 13.659 0.1975 13.799 2.5645 14.359 2.626 0.621 3.9137 5.4108 1.8047 6.7148-1.231 0.761-18.554 1.1224-19.274 0.4024-0.232-0.233-0.4219-1.9248-0.4219-3.7579 0-2.841 0.3511-3.332 2.3711-3.332 2.091 0 2.431-0.561 2.877-4.75 0.28-2.613 0.4033-6.325 0.2793-8.25-0.204-3.156-0.4889-3.4697-2.8789-3.1797-2.473 0.3-2.6485 0.058-2.6485-3.6172v-3.9375l7.2247-2.5742c3.4763-1.239 6.5211-2.1605 7.3574-2.2422zm110 0c0.1195-0.012 0.1946-0.01 0.2187 0.018 0.193 0.193 0.4294 6.5595 0.5254 14.146 0.173 13.696 0.1909 13.799 2.5879 14.365 1.796 0.425 2.4442 1.2862 2.5352 3.3692 0.067 1.538-0.3365 3.0817-0.8965 3.4277-1.13 0.699-18.459 0.9845-19.129 0.3145-0.232-0.233-0.4219-1.9248-0.4219-3.7579 0-2.8409 0.3511-3.332 2.3711-3.332 2.091 0 2.431-0.561 2.877-4.75 0.28-2.613 0.4033-6.325 0.2793-8.25-0.204-3.156-0.4889-3.4697-2.8789-3.1797-2.473 0.3-2.6485 0.058-2.6485-3.6172v-3.9375l7.2247-2.5742c3.4763-1.239 6.5211-2.1605 7.3574-2.2422zm62.418 0.051c11.528 0 15.998 5.1946 15.998 18.602 0 8.6-2.2027 13.259-7.4727 15.793-4.205 2.022-10.468 2.3295-14.785 0.7285-7.594-2.817-9.7383-6.5263-9.7383-16.822 0-13.08 4.566-18.301 15.998-18.301zm220 0c11.528 0 15.998 5.1955 15.998 18.604 0 8.599-2.2027 13.256-7.4727 15.789-4.205 2.022-10.468 2.3305-14.785 0.7285-7.594-2.817-9.7383-6.5263-9.7383-16.822 0-13.08 4.566-18.301 15.998-18.301zm-343.06 0.1074c0.143-0.01 0.2426 0.01 0.2949 0.041 0.418 0.258 0.7617 6.7421 0.7617 14.41v13.941h2.5586c2.342 0 2.534 0.3151 2.25 3.7051l-0.3086 3.7051-9.2363 0.051c-5.08 0.027-9.692-0.1021-10.25-0.2891-0.558-0.185-1.0137-1.8759-1.0137-3.7559 0-3.129 0.252-3.416 3-3.416h3v-16.877l-2.748 0.1875c-2.505 0.172-2.75-0.1182-2.75-3.2852 0-3.377 0.1893-3.5461 6.9863-6.1601 3.3635-1.2924 6.4544-2.22 7.4551-2.2579zm318.01 0.01c0.1531 8e-4 0.2621 0.019 0.3222 0.057 0.482 0.298 0.7289 6.6806 0.5489 14.184l-0.3282 13.643 2.75 0.3164c2.405 0.277 2.75 0.748 2.75 3.75 0 1.889-0.338 3.4659-0.75 3.5059-3.53 0.344-19.48 0.3653-19.818 0.027-0.238-0.238-0.4317-1.9022-0.4317-3.6992 0-2.821 0.376-3.311 2.75-3.584 2.724-0.314 2.7521-0.3928 3.0391-8.5488l0.291-8.2344-3.041 0.6094c-2.98 0.596-3.0391 0.5292-3.0391-3.3848v-3.9922l7.2012-2.5664c3.4668-1.2355 6.6837-2.0873 7.7559-2.082zm-35.258 8.3789c-1.207 0.019-2.4944 0.3588-3.7657 1.0391-1.64 0.878-1.9336 2.1418-1.9336 8.3008 0 4.317 0.4863 7.7518 1.1993 8.4648 1.712 1.712 7.3196 1.4837 8.8496-0.3613 2.124-2.558 2.4718-11.996 0.5508-14.928-1.1025-1.6825-2.8889-2.5464-4.9004-2.5156zm-367.1 0c-4.389 0-5.8446 1.9488-6.3926 8.5488-0.327 3.952 0 6.1095 1.1953 7.9395 1.216 1.856 2.52 2.5117 5 2.5117 4.245 0 5.3066-1.3172 6.1426-7.6152 0.945-7.131-1.2772-11.385-5.9472-11.385zm110 0c-4.389 0-5.8446 1.9488-6.3926 8.5488-0.327 3.952 0 6.1095 1.1953 7.9395 1.216 1.856 2.52 2.5117 5 2.5117 4.245 0 5.3066-1.3172 6.1426-7.6152 0.945-7.131-1.2772-11.385-5.9472-11.385zm60.418 0c-4.505 0-6.0137 2.2927-6.0137 9.1367 0 3.297 0.4652 6.8648 1.0352 7.9278 0.713 1.332 2.0964 1.9355 4.4434 1.9355 4.525 0 6.5214-2.908 6.5214-9.5 0-6.269-2.0373-9.5-5.9863-9.5zm37.242 0c-4.503 0-6.2559 2.5847-6.2559 9.2207 0 3.251 0.4652 6.7808 1.0352 7.8438 0.754 1.409 2.1028 1.9355 4.9648 1.9355 4.925 0 6-1.7683 6-9.8633 0-6.732-1.5131-9.1367-5.7441-9.1367zm37.264 0c-4.525 0-6.5196 2.907-6.5196 9.5 0 2.956 0.6467 5.9774 1.5567 7.2774 1.091 1.558 2.5749 2.2226 4.9629 2.2226 4.306 0 5.4804-2.034 5.4804-9.5 0-7.467-1.1744-9.5-5.4804-9.5zm182.74 0c-4.503 0-6.2559 2.5847-6.2559 9.2207 0 3.251 0.4652 6.7817 1.0352 7.8457 0.754 1.408 2.1028 1.9336 4.9648 1.9336 4.925 0 6-1.7673 6-9.8633 0-6.731-1.5131-9.1367-5.7441-9.1367zm-97.756 0.5c-3.2 0-4.18 0.47-5.207 2.5-1.755 3.47-1.6093 11.103 0.2637 13.777 1.816 2.594 7.4918 3.071 9.3848 0.791 1.835-2.212 2.3711-11.659 0.8261-14.568-1.073-2.02-2.0846-2.5-5.2676-2.5zm127.85 54.533c5.5703-0.1411 11.247 2.1711 14.383 6.8653 1.9 2.842 2.2714 4.7365 2.2714 11.602 0 9.488-2.0384 13.742-8.0214 16.748-4.124 2.073-9.042 2.1757-14.295 0.3027-7.877-2.809-10.203-7.5499-9.4531-19.254 0.337-5.242 1.0554-8.2203 2.4434-10.113 2.925-3.9919 7.7569-6.0258 12.672-6.1504zm-464.34 0.012c2.7226 0 5.5347 0.545 8.166 1.709 6.144 2.718 8.2876 7.2139 8.3086 17.424 0.018 8.26-1.2167 11.04-6.7207 15.15-3.018 2.253-10.734 3.0641-15.447 1.6231-5.043-1.543-9.0928-6.2795-9.8848-11.564-0.826-5.51 4e-4 -13.448 1.7754-17.068 2.2564-4.5994 7.813-7.2664 13.803-7.2735zm329.78 0.049c2.9516-0.07 5.987 0.5277 8.789 1.8008 5.717 2.5969 7.8863 7.3382 7.9063 17.283 0.018 8.26-1.2167 11.038-6.7207 15.148-1.511 1.127-4.6495 2.0865-7.4375 2.2735-13.222 0.884-19.743-6.9828-17.998-21.719 0.82-6.92 2.5618-9.9749 7.1738-12.586 2.4675-1.3965 5.3355-2.1335 8.2872-2.2031zm60.379 0.045c0.7877-0.017 1.6001 0.01 2.4355 0.078 9.971 0.827 14.396 6.4488 14.396 18.299 0 8.987-2.0722 13.176-8.0352 16.232-10.588 5.429-21.714 0.5887-24.004-10.443-2.9362-14.141 3.3906-23.915 15.207-24.168zm-145.24 0.025c3.794 0.022 7.6739 0.8903 9.8418 2.5058 4.876 3.635 6.4964 7.6484 6.4004 15.861-0.12 10.363-2.7364 14.866-10.064 17.326-4.37 1.468-7.6691 1.3864-12.416-0.3066-7.877-2.809-10.203-7.5499-9.4531-19.254 0.54-8.402 2.3029-11.688 7.8399-14.602 2.0015-1.0535 4.9006-1.5482 7.8515-1.5312zm-160.43 0.029c0.8905-0.022 1.807 0.01 2.7442 0.094 10.024 0.909 13.709 5.1841 14.545 16.873 0.646 9.021-2.1719 15.208-8.1719 17.932-10.839 4.923-22.524-0.6857-24.16-11.596-0.781-5.212-0.039-11.14 2.0058-16.035 1.8445-4.4153 6.8038-7.1167 13.037-7.2676zm39.061 0.086c3.4784 0.029 6.8419 0.7488 9.1601 2.2676 3.774 2.473 6.2426 8.9577 6.2676 16.469 0.029 8.446-2.1527 12.728-8.0137 15.734-11.093 5.688-23.007-0.1303-24.457-11.945-0.7-5.701 0.7218-13.951 3.0078-17.455 2.1225-3.255 8.2378-5.1194 14.035-5.0703zm71.24 0.055c1.1092-0.04 1.2109 2.24 1.2109 14.059v14.607h2.5586c2.342 0 2.534 0.3151 2.25 3.7051l-0.3086 3.7051-9.2363 0.051c-5.08 0.027-9.692-0.1031-10.25-0.2891s-1.0137-1.8769-1.0137-3.7559c0-3.13 0.252-3.416 3-3.416h3v-8.5195c0-8.474-0.012-8.5149-2.3808-7.9199-2.135 0.536-2.4266 0.2211-2.8086-3.0489-0.471-4.034-0.1806-4.3093 7.1894-6.8183 2.475-0.842 5.287-1.8407 6.25-2.2207 0.2023-0.079 0.3807-0.133 0.5391-0.1387zm110 0c1.1092-0.041 1.2109 2.24 1.2109 14.059v14.607h2.5586c2.342 0 2.534 0.3151 2.25 3.7051l-0.3086 3.7051-9.2363 0.051c-5.08 0.027-9.692-0.1021-10.25-0.2891-0.558-0.185-1.0137-1.8759-1.0137-3.7559 0-3.129 0.252-3.416 3-3.416h3v-8.5195c0-8.474-0.012-8.5149-2.3808-7.9199-2.135 0.535-2.4266 0.2192-2.8086-3.0508-0.471-4.034-0.1806-4.3084 7.1894-6.8164 2.475-0.842 5.287-1.8417 6.25-2.2207 0.2023-0.079 0.3807-0.1329 0.5391-0.1387zm-245 0.02c1.1102-0.06 1.2109 2.2117 1.2109 14.039v14.607h2.5586c2.342 0 2.534 0.3151 2.25 3.7051l-0.3086 3.7051-9.3418 0.051c-5.1379 0.028-9.5991-0.3632-9.9121-0.8692-0.312-0.505-0.669-2.1968-0.791-3.7558-0.198-2.511 0.1072-2.836 2.6602-2.836h2.8847v-16.723l-2.5 0.4785c-2.332 0.446-2.5 0.2051-2.5-3.5489 0-4.003 0.031-4.0348 5.75-6.0078 3.162-1.091 6.537-2.3042 7.5-2.6972 0.2025-0.083 0.3805-0.1399 0.5391-0.1485zm220 0c1.1102-0.06 1.2109 2.2117 1.2109 14.039v14.607h2.5586c2.342 0 2.534 0.3151 2.25 3.7051l-0.3086 3.7051-9.375 0.051c-5.471 0.029-9.4979-0.3681-9.6679-0.9551-1.714-5.918-1.5775-6.5059 1.5215-6.5059h3.0214v-16.723l-2.5 0.4785c-2.332 0.446-2.5 0.2061-2.5-3.5469 0-4.004 0.031-4.0358 5.75-6.0098 3.162-1.091 6.537-2.3042 7.5-2.6972 0.2025-0.083 0.3805-0.1399 0.5391-0.1485zm-244.21 0.096c0.1195-0.012 0.1946-0.01 0.2187 0.018 0.193 0.194 0.4294 6.5595 0.5254 14.146 0.172 13.66 0.1965 13.799 2.5645 14.359 2.626 0.621 3.9137 5.4108 1.8047 6.7148-1.231 0.762-18.554 1.1224-19.274 0.4024-0.232-0.232-0.4219-1.9239-0.4219-3.7579 0-2.84 0.3511-3.332 2.3711-3.332 2.091 0 2.431-0.561 2.877-4.75 0.28-2.612 0.4033-6.325 0.2793-8.25-0.204-3.155-0.4889-3.4677-2.8789-3.1777-2.473 0.3-2.6485 0.058-2.6485-3.6172v-3.9395l7.2247-2.5742c3.4763-1.239 6.5211-2.1605 7.3574-2.2422zm330 0c0.1195-0.012 0.1946-0.01 0.2187 0.018 0.193 0.193 0.4294 6.5794 0.5254 14.191l0.1738 13.842 2.6797 0.3106c2.262 0.261 2.6687 0.7751 2.5977 3.2851-0.046 1.637-0.571 3.2746-1.166 3.6426-1.173 0.725-18.498 1.0416-19.19 0.3516-0.232-0.233-0.4219-1.9249-0.4219-3.7579 0-2.841 0.3511-3.332 2.3711-3.332 2.092 0 2.431-0.56 2.875-4.75 0.277-2.613 0.4431-6.325 0.3731-8.25-0.119-3.204-0.363-3.4737-2.875-3.1797-2.583 0.303-2.7442 0.09-2.7442-3.6172v-3.9375l7.2247-2.5742c3.4763-1.239 6.5211-2.1605 7.3574-2.2422zm-205.58 0.051c5.357 0 7.4688 0.4513 9.6758 2.0703 4.452 3.266 6.3203 7.9757 6.3203 15.93 0 9.133-2.0189 13.255-7.9589 16.25-8.669 4.371-18.675 1.7193-22.672-6.0097-2.225-4.304-2.0419-15.718 0.3301-20.484 2.934-5.9 6.3586-7.7559 14.305-7.7559zm268 0c11.528 0 15.998 5.1946 15.998 18.602 0 8.6-2.2027 13.259-7.4727 15.793-4.205 2.0219-10.468 2.3295-14.785 0.7285-7.594-2.817-9.7383-6.5263-9.7383-16.822 0-13.08 4.566-18.301 15.998-18.301zm-208.02 0.1328c0.1462 0 0.249 0.012 0.3047 0.047 0.445 0.275 0.7631 5.7472 0.7051 12.16-0.157 17.347-0.3456 16.16 2.5644 16.16 2.344 0 2.535 0.3137 2.25 3.7207l-0.3086 3.7207-9.25 0.029c-5.086 0.015-9.699-0.1207-10.25-0.3047-0.551-0.183-1-1.8416-1-3.6836 0-2.912 0.36-3.391 2.75-3.666 2.723-0.313 2.7521-0.3957 3.0391-8.5097l0.291-8.1954-2.791 0.1954c-2.555 0.177-2.7891-0.1003-2.7891-3.2813 0-3.377 0.1923-3.5471 6.9883-6.1601 3.3635-1.2933 6.4729-2.2088 7.4961-2.2325zm-134.29 8.3633c-1.207 0.019-2.4944 0.3588-3.7657 1.0391-1.64 0.878-1.9336 2.1418-1.9336 8.3008 0 4.317 0.4863 7.7518 1.1993 8.4648 1.712 1.712 7.3196 1.4837 8.8496-0.3613 2.124-2.558 2.4718-11.996 0.5508-14.928-1.1025-1.6825-2.8889-2.5464-4.9004-2.5156zm-85.104 0c-4.389 0-5.8446 1.9488-6.3926 8.5488-0.327 3.953 0 6.1095 1.1953 7.9395 1.215 1.856 2.52 2.5117 5 2.5117 4.245 0 5.3066-1.3162 6.1426-7.6152 0.945-7.131-1.2772-11.385-5.9472-11.385zm122.42 0c-4.505 0-6.0137 2.2937-6.0137 9.1367 0 3.297 0.4652 6.8657 1.0352 7.9297 0.713 1.331 2.0964 1.9336 4.4434 1.9336 4.525 0 6.5214-2.908 6.5214-9.5 0-6.268-2.0373-9.5-5.9863-9.5zm37.242 0c-4.503 0-6.2559 2.5847-6.2559 9.2207 0 3.251 0.4652 6.7817 1.0352 7.8457 0.754 1.408 2.1028 1.9336 4.9648 1.9336 4.925 0 6-1.7673 6-9.8633 0-6.731-1.5131-9.1367-5.7441-9.1367zm85.264 0c-4.525 0-6.5196 2.907-6.5196 9.5 0 2.956 0.6467 5.9774 1.5567 7.2774 1.091 1.558 2.5749 2.2226 4.9629 2.2226 4.306 0 5.4804-2.034 5.4804-9.5 0-7.467-1.1744-9.5-5.4804-9.5zm145.49 0c-4.505 0-6.0137 2.2927-6.0137 9.1367 0 3.297 0.4652 6.8648 1.0352 7.9278 0.713 1.332 2.0964 1.9355 4.4434 1.9355 4.525 0 6.5214-2.908 6.5214-9.5 0-6.269-2.0373-9.5-5.9863-9.5zm37.242 0c-4.503 0-6.2559 2.5847-6.2559 9.2207 0 3.251 0.4652 6.7808 1.0352 7.8438 0.754 1.409 2.1028 1.9355 4.9648 1.9355 4.925 0 6-1.7683 6-9.8633 0-6.732-1.5131-9.1367-5.7441-9.1367zm37.264 0c-4.525 0-6.5196 2.907-6.5196 9.5 0 2.956 0.6467 5.9774 1.5567 7.2774 1.091 1.558 2.5749 2.2226 4.9629 2.2226 4.306 0 5.4804-2.034 5.4804-9.5 0-7.467-1.1744-9.5-5.4804-9.5zm-135.02 0.5c-3.2 0-4.18 0.47-5.207 2.5-1.755 3.469-1.6093 11.104 0.2637 13.777 1.816 2.594 7.4918 3.071 9.3848 0.791 1.835-2.212 2.3711-11.659 0.8261-14.568-1.073-2.02-2.0846-2.5-5.2676-2.5z"/>
  <path d="m-2884.9 1988.4c-76.204-0.1642-152.46 4.9647-228.67 15.391-140.6 19.235-280.23 56.473-417.01 111.21-147.04 58.85-294.27 140.85-414 230.57-17.876 13.398-42.719 33.093-52.307 41.469l-6.3105 5.5098 0.418 358.58c0.441 379.7 0.3696 373.58 5.1796 450.08 26.223 417.07 154.05 773.06 379 1055.5 127.09 159.57 288.07 296.1 467.52 396.49 81.312 45.489 171.48 85.565 243 108.01 9.075 2.847 16.95 5.3334 17.5 5.5234 3.43 1.188 39.236-10.412 78-25.268 84.862-32.525 175.91-78.767 261-132.56 135.71-85.789 260.75-194.53 363.6-316.19 244.89-289.7 382.45-659.82 408.84-1100 4.362-72.75 4.3584-72.335 4.7754-442.58l0.4024-357.58-6.3067-5.5078c-9.586-8.375-34.432-28.07-52.307-41.465-158.1-118.49-356.68-219.17-550.96-279.34-166.29-51.506-333.71-77.477-501.36-77.838zm-7.8125 156.8c197.97-0.5513 395.93 38.093 589.31 115.92 123.3 49.621 232.58 108.71 346.58 187.39l29.75 20.533-0.012 285.61c-0.014 331.36-0.6262 374.21-6.5352 457.11-27.728 389.05-150.73 719.34-363.47 976-102.98 124.23-226.84 230.84-364.48 313.71-61.803 37.209-128.43 70.28-193.5 96.043-36.041 14.27-32.819 13.285-37.527 11.496-24.692-9.38-66.353-26.484-83.918-34.451-129.87-58.906-251.17-138.98-363.05-239.68-19.984-17.985-80.544-78.622-98.365-98.49-69.599-77.593-126.82-155.71-177.37-242.12-129.86-222.02-206.4-483.78-227.77-779-6.29-86.892-6.9655-132.38-6.9825-470.06l-0.016-276.06 32.75-22.584c115.45-79.605 227.31-139.57 353.11-189.28 187.74-74.189 379.63-111.54 571.51-112.08z"/>
 </g>
</svg>
